HIERARCHY
ROOT Hips
{
	OFFSET 0.000000 89.005402 0.000000
	CHANNELS 6 Xposition Yposition Zposition Xrotation Yrotation Zrotation
	JOINT Spine
	{
		OFFSET 0.116900 10.681000 0.373400
		CHANNELS 3 Xrotation Yrotation Zrotation
		JOINT Spine1
		{
			OFFSET 0.000000 13.840401 0.053500
			CHANNELS 3 Xrotation Yrotation Zrotation
			JOINT Spine2
			{
				OFFSET 0.000000 14.712700 -0.366200
				CHANNELS 3 Xrotation Yrotation Zrotation
				JOINT Neck
				{
					OFFSET 0.000000 35.415497 -3.314200
					CHANNELS 3 Xrotation Yrotation Zrotation
					JOINT Head
					{
						OFFSET 0.000000 16.899200 1.218300
						CHANNELS 3 Xrotation Yrotation Zrotation
						JOINT HeadTop_End
						{
							OFFSET 0.000000 22.206207 2.192500
							CHANNELS 3 Xrotation Yrotation Zrotation
							End Site
							{
								OFFSET 0.000000 22.314178 0.000000
							}
						}
					}
				}
				JOINT LeftShoulder
				{
					OFFSET 12.896400 26.716293 -4.548400
					CHANNELS 3 Xrotation Yrotation Zrotation
					JOINT LeftArm
					{
						OFFSET 19.027000 -4.857010 -1.718400
						CHANNELS 3 Xrotation Yrotation Zrotation
						JOINT LeftForeArm
						{
							OFFSET 24.179897 0.000000 0.000000
							CHANNELS 3 Xrotation Yrotation Zrotation
							JOINT LeftHand
							{
								OFFSET 27.156403 0.000000 0.000000
								CHANNELS 3 Xrotation Yrotation Zrotation
								JOINT LeftHandIndex1
								{
									OFFSET 16.441200 0.000000 0.000000
									CHANNELS 3 Xrotation Yrotation Zrotation
									JOINT LeftHandIndex2
									{
										OFFSET 4.821899 0.000000 0.000000
										CHANNELS 3 Xrotation Yrotation Zrotation
										JOINT LeftHandIndex3
										{
											OFFSET 6.386497 0.000000 0.000000
											CHANNELS 3 Xrotation Yrotation Zrotation
											JOINT LeftHandIndex4
											{
												OFFSET 5.188988 0.000000 0.000000
												CHANNELS 3 Xrotation Yrotation Zrotation
												End Site
												{
													OFFSET -0.178703 5.185913 0.000177
												}
											}
										}
									}
								}
								JOINT LeftHandThumb1
								{
									OFFSET 6.534897 -5.032593 5.900300
									CHANNELS 3 Xrotation Yrotation Zrotation
									JOINT LeftHandThumb2
									{
										OFFSET 3.818176 -2.204422 2.204423
										CHANNELS 3 Xrotation Yrotation Zrotation
										JOINT LeftHandThumb3
										{
											OFFSET 3.252098 -1.877594 1.877601
											CHANNELS 3 Xrotation Yrotation Zrotation
											JOINT LeftHandThumb4
											{
												OFFSET 5.251778 -3.032120 3.032117
												CHANNELS 3 Xrotation Yrotation Zrotation
												End Site
												{
													OFFSET 0.000023 6.780014 0.000000
												}
											}
										}
									}
								}
							}
						}
					}
				}
				JOINT RightShoulder
				{
					OFFSET -12.896300 26.716293 -4.548400
					CHANNELS 3 Xrotation Yrotation Zrotation
					JOINT RightArm
					{
						OFFSET -19.027000 -4.857010 -1.718400
						CHANNELS 3 Xrotation Yrotation Zrotation
						JOINT RightForeArm
						{
							OFFSET -24.179897 0.000000 0.000000
							CHANNELS 3 Xrotation Yrotation Zrotation
							JOINT RightHand
							{
								OFFSET -27.156403 0.000000 0.000000
								CHANNELS 3 Xrotation Yrotation Zrotation
								JOINT RightHandThumb1
								{
									OFFSET -6.591202 -4.852203 5.988100
									CHANNELS 3 Xrotation Yrotation Zrotation
									JOINT RightHandThumb2
									{
										OFFSET -3.818176 -2.204422 2.204423
										CHANNELS 3 Xrotation Yrotation Zrotation
										JOINT RightHandThumb3
										{
											OFFSET -3.252098 -1.877594 1.877601
											CHANNELS 3 Xrotation Yrotation Zrotation
											JOINT RightHandThumb4
											{
												OFFSET -5.251778 -3.032120 3.032117
												CHANNELS 3 Xrotation Yrotation Zrotation
												End Site
												{
													OFFSET -0.000023 6.780014 0.000000
												}
											}
										}
									}
								}
								JOINT RightHandIndex1
								{
									OFFSET -16.029404 0.000000 0.000000
									CHANNELS 3 Xrotation Yrotation Zrotation
									JOINT RightHandIndex2
									{
										OFFSET -5.213303 0.000000 0.000000
										CHANNELS 3 Xrotation Yrotation Zrotation
										JOINT RightHandIndex3
										{
											OFFSET -6.386528 0.000000 0.000000
											CHANNELS 3 Xrotation Yrotation Zrotation
											JOINT RightHandIndex4
											{
												OFFSET -5.189026 0.000000 0.000000
												CHANNELS 3 Xrotation Yrotation Zrotation
												End Site
												{
													OFFSET 0.236702 5.183624 0.001972
												}
											}
										}
									}
								}
							}
						}
					}
				}
			}
		}
	}
	JOINT LeftUpLeg
	{
		OFFSET 14.073000 -7.904099 -1.463000
		CHANNELS 3 Xrotation Yrotation Zrotation
		JOINT LeftLeg
		{
			OFFSET -0.109806 -34.073280 4.093200
			CHANNELS 3 Xrotation Yrotation Zrotation
			JOINT LeftFoot
			{
				OFFSET 0.109806 -29.899420 -6.319000
				CHANNELS 3 Xrotation Yrotation Zrotation
				JOINT LeftToeBase
				{
					OFFSET 1.551100 -14.988700 20.535801
					CHANNELS 3 Xrotation Yrotation Zrotation
					JOINT LeftToe_End
					{
						OFFSET 0.221200 0.570800 13.248301
						CHANNELS 3 Xrotation Yrotation Zrotation
						End Site
						{
							OFFSET 0.000000 13.262435 0.000000
						}
					}
				}
			}
		}
	}
	JOINT RightUpLeg
	{
		OFFSET -13.839300 -7.904099 -1.463000
		CHANNELS 3 Xrotation Yrotation Zrotation
		JOINT RightLeg
		{
			OFFSET 0.109694 -34.073219 4.093300
			CHANNELS 3 Xrotation Yrotation Zrotation
			JOINT RightFoot
			{
				OFFSET -0.109694 -29.899384 -6.319200
				CHANNELS 3 Xrotation Yrotation Zrotation
				JOINT RightToeBase
				{
					OFFSET -1.551100 -14.988700 20.535801
					CHANNELS 3 Xrotation Yrotation Zrotation
					JOINT RightToe_End
					{
						OFFSET -0.221200 0.570900 13.248299
						CHANNELS 3 Xrotation Yrotation Zrotation
						End Site
						{
							OFFSET 0.000000 13.262440 0.000000
						}
					}
				}
			}
		}
	}
}
MOTION
Frames: 4
Frame Time: 0.033333
3.110699 79.483360 2.608584 3.670775 -43.866012 0.590110 7.190863 4.082661 -4.225488 -1.014798 2.967370 -0.754448 -13.765276 2.265400 -1.599610 1.546018 3.326637 4.814098 18.819297 12.691215 -10.007167 -0.000000 -0.000000 0.000001 -0.153205 -14.471694 4.457670 -2.819451 10.004698 -52.851474 -13.967283 -17.728524 -7.137701 1.640480 -9.868864 -3.986274 -0.432641 -4.480802 -4.767006 0.196030 -0.341739 -7.465060 0.055110 -0.240268 -5.021322 -0.000004 -0.000002 0.000000 12.510563 -11.721965 17.316632 -1.419061 11.864832 -7.595888 4.073615 6.462422 -0.678808 -0.000000 -0.000004 0.000006 -24.760440 12.429045 -34.036704 -76.469575 -7.851606 -7.403318 0.019420 135.066048 17.814551 -21.638326 24.760752 -50.516919 55.149512 18.649577 -29.698277 -0.441602 -14.179836 7.312542 21.667751 -29.243913 9.142278 0.000001 -0.000002 -0.000001 5.674137 7.585588 36.843987 1.050346 3.824604 68.900073 0.492254 3.029688 62.196536 -0.000000 -0.000001 -0.000000 -44.014443 36.381744 31.499340 47.405389 -17.957863 1.662483 -16.505734 3.193001 1.581478 -0.986748 -5.881312 1.002987 0.000000 -0.000001 -0.000000 -20.997403 -0.811802 -17.849552 44.105325 8.394636 -5.712068 -23.273856 -1.650934 23.404232 3.213274 2.721419 1.864728 0.000000 -0.000000 0.000001 
2.831755 79.152588 2.061280 4.157792 -45.216931 1.230029 7.270053 4.144811 -4.158183 -0.852120 3.127416 -0.739595 -13.602783 2.409971 -1.559134 1.463923 3.534122 4.854974 18.780802 12.992896 -10.152945 -0.000000 -0.000001 -0.000000 -0.290367 -13.858414 4.026764 -2.923755 8.893560 -51.973918 -14.710964 -19.266767 -7.881044 1.046738 -9.364426 -3.516073 -0.449186 -4.368419 -4.866231 0.183110 -0.432995 -9.449340 0.053022 -0.256883 -5.365139 -0.000001 -0.000002 0.000001 13.011767 -11.131578 17.263322 -1.186021 12.052199 -7.724479 4.327484 6.817352 -0.682712 -0.000003 0.000001 0.000000 -25.376492 11.951186 -31.346446 -73.492644 -7.682657 -2.412737 0.278935 131.570631 18.944600 -19.367509 22.363223 -51.140389 55.149526 18.649579 -29.698291 -0.441592 -14.179836 7.312564 21.667740 -29.243923 9.142269 -0.000004 0.000001 -0.000000 5.674154 7.585580 36.843970 1.050324 3.824619 68.900086 0.492238 3.029642 62.196502 0.000001 -0.000001 -0.000002 -45.346514 36.942116 33.160712 47.971950 -18.129088 1.416568 -16.594371 3.324407 1.305866 -0.985954 -5.881318 1.004275 0.000000 0.000001 -0.000000 -19.582342 -2.103589 -20.319832 42.832666 6.378156 -6.416272 -20.693588 -2.505171 22.184948 2.033796 2.733933 1.846846 -0.000000 0.000001 -0.000001 
2.593900 78.822937 1.422995 4.634306 -46.285969 1.952727 7.373386 4.189956 -4.073827 -0.644342 3.292835 -0.725066 -13.390435 2.563182 -1.511447 1.409173 3.888138 4.655377 18.331955 13.332307 -10.078170 -0.000001 -0.000001 0.000000 -0.406414 -13.401411 3.634307 -2.535192 7.624659 -51.242979 -15.506855 -21.102399 -8.727902 0.609413 -8.147331 -3.705874 -0.492583 -4.071840 -5.127586 0.159695 -0.559464 -12.216380 0.048969 -0.293885 -6.184347 0.000001 -0.000004 0.000002 13.669744 -10.350453 17.155547 -0.895332 12.293111 -7.877331 4.668862 7.300729 -0.692217 0.000001 -0.000001 0.000002 -25.768123 11.867916 -28.762429 -67.603655 -6.541717 0.521882 0.021645 125.528878 18.966450 -17.292963 20.242775 -52.583434 55.149522 18.649540 -29.698264 -0.441582 -14.179806 7.312559 21.667739 -29.243913 9.142279 0.000000 0.000001 0.000001 5.674152 7.585554 36.843943 1.050333 3.824618 68.900100 0.492243 3.029667 62.196509 -0.000000 -0.000000 -0.000001 -46.528488 37.282427 34.423959 48.418098 -18.219424 1.233903 -16.474719 3.498691 0.989190 -0.985675 -5.881319 1.004773 -0.000000 0.000001 0.000000 -17.856819 -2.747550 -22.402047 40.995028 4.595137 -7.386452 -18.543936 -3.409464 20.394854 -0.552042 2.605773 4.557820 -0.000000 0.000000 -0.000000 
2.364281 78.502693 0.626901 5.008207 -47.167996 2.620808 7.471558 4.259892 -3.960688 -0.448000 3.547676 -0.715663 -13.184434 2.809149 -1.439968 1.240283 4.328894 4.279091 17.425527 13.776619 -9.737163 -0.000001 -0.000001 -0.000000 -0.571604 -13.006254 2.900407 -2.136549 6.185684 -50.626438 -16.327005 -22.895574 -9.513740 1.464932 -5.895468 -4.175681 -0.552361 -3.651666 -5.496418 0.124898 -0.700921 -15.346086 0.042896 -0.349223 -7.354183 0.000000 -0.000000 -0.000001 14.421533 -9.468438 16.998623 -0.574478 12.563050 -8.043243 5.059703 7.858433 -0.710404 0.000001 -0.000002 0.000002 -26.260802 11.457894 -26.255423 -60.023784 -4.804589 1.865542 -0.150961 118.036761 17.344004 -16.311742 18.630517 -53.205429 55.149533 18.649586 -29.698277 -0.441619 -14.179846 7.312538 21.667756 -29.243895 9.142281 0.000002 -0.000001 -0.000000 5.674172 7.585583 36.843960 1.050292 3.824623 68.900107 0.492242 3.029652 62.196509 0.000001 -0.000001 0.000001 -47.507633 37.268548 35.410207 48.712943 -18.183246 1.050110 -16.109437 3.777747 0.545878 -0.985762 -5.881311 1.004607 0.000000 0.000001 -0.000000 -15.937208 -2.927490 -23.621828 38.704240 2.759610 -9.036924 -17.376005 -4.309164 19.023545 -2.033229 2.434652 6.269448 0.000000 0.000001 0.000000 
